# MagicaVoxel @ Ephtracy

# group
o 

# material
mtllib horse.mtl
usemtl palette

# normals
vn -1 0 0
vn 1 0 0
vn 0 0 1
vn 0 0 -1
vn 0 -1 0
vn 0 1 0

# texcoords
vt 0.228516 0.5
vt 0.369141 0.5
vt 0.962891 0.5
vt 0.990234 0.5
vt 0.994141 0.5

# verts
v -0.5 0 0.2
v -0.5 0 -0.1
v -0.5 0 -0.7
v -0.5 0 -1
v -0.5 0.1 0.2
v -0.5 0.1 -0.1
v -0.5 0.1 -0.7
v -0.5 0.1 -1
v -0.5 0.4 -0.1
v -0.5 0.4 -0.4
v -0.5 0.4 -0.5
v -0.5 0.4 -0.7
v -0.5 0.6 -0.1
v -0.5 0.6 -0.4
v -0.5 0.6 -0.5
v -0.5 0.6 -0.8
v -0.5 0.7 -0.2
v -0.5 0.7 -0.7
v -0.5 0.8 0.2
v -0.5 0.8 -0.1
v -0.5 0.8 -0.2
v -0.5 0.8 -0.7
v -0.5 0.8 -0.8
v -0.5 0.8 -1
v -0.5 1.2 0.2
v -0.5 1.2 0
v -0.5 1.4 0.2
v -0.5 1.4 0
v -0.4 0.7 0.3
v -0.4 0.7 0.2
v -0.4 0.8 0.2
v -0.4 0.8 0
v -0.4 0.9 0.9
v -0.4 0.9 0.3
v -0.4 0.9 0.1
v -0.4 0.9 0
v -0.4 1.1 0.9
v -0.4 1.1 0.8
v -0.4 1.2 0.9
v -0.4 1.2 0.8
v -0.4 1.2 0.5
v -0.4 1.2 0.4
v -0.4 1.2 0.2
v -0.4 1.2 0.1
v -0.4 1.3 0.5
v -0.4 1.3 0.4
v -0.4 1.4 0.5
v -0.4 1.4 0.4
v -0.4 1.4 0.2
v -0.4 1.4 0.1
v -0.4 1.5 0.5
v -0.4 1.5 0.1
v -0.4 1.6 0.5
v -0.4 1.6 0.1
v -0.3 0.6 -1.1
v -0.3 0.6 -1.3
v -0.3 0.7 -1
v -0.3 0.7 -1.1
v -0.3 0.7 -1.2
v -0.3 0.7 -1.3
v -0.3 0.8 0
v -0.3 0.8 -0.1
v -0.3 0.8 -0.2
v -0.3 0.8 -0.3
v -0.3 0.8 -1
v -0.3 0.9 0.1
v -0.3 0.9 0
v -0.3 0.9 -0.2
v -0.3 0.9 -0.3
v -0.3 0.9 -1
v -0.3 0.9 -1.2
v -0.3 1 -0.1
v -0.3 1 -0.2
v -0.3 1.4 0
v -0.3 1.4 -0.1
v -0.3 1.5 0.1
v -0.3 1.5 0
v -0.1 0 0.2
v -0.1 0 -0.1
v -0.1 0 -0.7
v -0.1 0 -1
v -0.1 0.1 0.2
v -0.1 0.1 -0.1
v -0.1 0.1 -0.7
v -0.1 0.1 -1
v -0.1 0.4 0.2
v -0.1 0.4 -0.1
v -0.1 0.4 -0.7
v -0.1 0.4 -1
v 0 1.2 0.1
v 0 1.2 0
v 0 1.4 0.1
v 0 1.4 0
v -0.4 1.2 0.1
v -0.4 1.2 0
v -0.4 1.4 0.1
v -0.4 1.4 0
v -0.3 0 0.2
v -0.3 0 -0.1
v -0.3 0 -0.7
v -0.3 0 -1
v -0.3 0.1 0.2
v -0.3 0.1 -0.1
v -0.3 0.1 -0.7
v -0.3 0.1 -1
v -0.3 0.4 0.2
v -0.3 0.4 -0.1
v -0.3 0.4 -0.7
v -0.3 0.4 -1
v -0.1 0.6 -1.1
v -0.1 0.6 -1.3
v -0.1 0.7 -1
v -0.1 0.7 -1.1
v -0.1 0.7 -1.2
v -0.1 0.7 -1.3
v -0.1 0.8 0
v -0.1 0.8 -0.1
v -0.1 0.8 -0.2
v -0.1 0.8 -0.3
v -0.1 0.8 -1
v -0.1 0.9 0.1
v -0.1 0.9 0
v -0.1 0.9 -0.2
v -0.1 0.9 -0.3
v -0.1 0.9 -1
v -0.1 0.9 -1.2
v -0.1 1 -0.1
v -0.1 1 -0.2
v -0.1 1.4 0
v -0.1 1.4 -0.1
v -0.1 1.5 0.1
v -0.1 1.5 0
v 0 0.7 0.3
v 0 0.7 0.2
v 0 0.8 0.2
v 0 0.8 0
v 0 0.9 0.9
v 0 0.9 0.3
v 0 0.9 0.1
v 0 0.9 0
v 0 1.1 0.9
v 0 1.1 0.8
v 0 1.2 0.9
v 0 1.2 0.8
v 0 1.2 0.5
v 0 1.2 0.4
v 0 1.2 0.2
v 0 1.2 0.1
v 0 1.3 0.5
v 0 1.3 0.4
v 0 1.4 0.5
v 0 1.4 0.4
v 0 1.4 0.2
v 0 1.4 0.1
v 0 1.5 0.5
v 0 1.5 0.1
v 0 1.6 0.5
v 0 1.6 0.1
v 0.1 0 0.2
v 0.1 0 -0.1
v 0.1 0 -0.7
v 0.1 0 -1
v 0.1 0.1 0.2
v 0.1 0.1 -0.1
v 0.1 0.1 -0.7
v 0.1 0.1 -1
v 0.1 0.4 -0.1
v 0.1 0.4 -0.4
v 0.1 0.4 -0.5
v 0.1 0.4 -0.7
v 0.1 0.6 -0.1
v 0.1 0.6 -0.4
v 0.1 0.6 -0.5
v 0.1 0.6 -0.8
v 0.1 0.7 -0.2
v 0.1 0.7 -0.7
v 0.1 0.8 0.2
v 0.1 0.8 -0.1
v 0.1 0.8 -0.2
v 0.1 0.8 -0.7
v 0.1 0.8 -0.8
v 0.1 0.8 -1
v 0.1 1.2 0.2
v 0.1 1.2 0
v 0.1 1.4 0.2
v 0.1 1.4 0
v -0.4 0.9 0.9
v -0.4 1.1 0.9
v -0.4 1.2 0.9
v 0 0.9 0.9
v 0 1.1 0.9
v 0 1.2 0.9
v -0.4 1.2 0.5
v -0.4 1.3 0.5
v -0.4 1.4 0.5
v -0.4 1.5 0.5
v -0.4 1.6 0.5
v -0.3 1.2 0.5
v -0.3 1.3 0.5
v -0.3 1.4 0.5
v -0.1 1.2 0.5
v -0.1 1.3 0.5
v -0.1 1.4 0.5
v 0 1.2 0.5
v 0 1.3 0.5
v 0 1.4 0.5
v 0 1.5 0.5
v 0 1.6 0.5
v -0.4 0.7 0.3
v -0.4 0.9 0.3
v 0 0.7 0.3
v 0 0.9 0.3
v -0.5 0 0.2
v -0.5 0.1 0.2
v -0.5 0.8 0.2
v -0.5 1.2 0.2
v -0.5 1.4 0.2
v -0.4 0.7 0.2
v -0.4 0.8 0.2
v -0.4 1.2 0.2
v -0.4 1.4 0.2
v -0.3 0 0.2
v -0.3 0.1 0.2
v -0.3 0.4 0.2
v -0.1 0 0.2
v -0.1 0.1 0.2
v -0.1 0.4 0.2
v 0 0.7 0.2
v 0 0.8 0.2
v 0 1.2 0.2
v 0 1.4 0.2
v 0.1 0 0.2
v 0.1 0.1 0.2
v 0.1 0.8 0.2
v 0.1 1.2 0.2
v 0.1 1.4 0.2
v -0.5 0 -0.7
v -0.5 0.1 -0.7
v -0.5 0.4 -0.7
v -0.3 0 -0.7
v -0.3 0.1 -0.7
v -0.3 0.4 -0.7
v -0.1 0 -0.7
v -0.1 0.1 -0.7
v -0.1 0.4 -0.7
v 0.1 0 -0.7
v 0.1 0.1 -0.7
v 0.1 0.4 -0.7
v -0.3 0.8 -1
v -0.3 0.9 -1
v -0.1 0.8 -1
v -0.1 0.9 -1
v -0.3 0.6 -1.1
v -0.3 0.7 -1.1
v -0.1 0.6 -1.1
v -0.1 0.7 -1.1
v -0.4 0.9 0.1
v -0.4 1.2 0.1
v -0.4 1.4 0.1
v -0.4 1.5 0.1
v -0.4 1.6 0.1
v -0.3 0.9 0.1
v -0.3 1.5 0.1
v -0.1 0.9 0.1
v -0.1 1.5 0.1
v 0 0.9 0.1
v 0 1.2 0.1
v 0 1.4 0.1
v 0 1.5 0.1
v 0 1.6 0.1
v -0.5 1.2 0
v -0.5 1.4 0
v -0.4 0.8 0
v -0.4 0.9 0
v -0.4 1.2 0
v -0.4 1.4 0
v -0.3 0.8 0
v -0.3 0.9 0
v -0.3 1.4 0
v -0.3 1.5 0
v -0.1 0.8 0
v -0.1 0.9 0
v -0.1 1.4 0
v -0.1 1.5 0
v 0 0.8 0
v 0 0.9 0
v 0 1.2 0
v 0 1.4 0
v 0.1 1.2 0
v 0.1 1.4 0
v -0.5 0 -0.1
v -0.5 0.1 -0.1
v -0.5 0.4 -0.1
v -0.3 0 -0.1
v -0.3 0.1 -0.1
v -0.3 0.4 -0.1
v -0.3 1 -0.1
v -0.3 1.4 -0.1
v -0.1 0 -0.1
v -0.1 0.1 -0.1
v -0.1 0.4 -0.1
v -0.1 1 -0.1
v -0.1 1.4 -0.1
v 0.1 0 -0.1
v 0.1 0.1 -0.1
v 0.1 0.4 -0.1
v -0.3 0.9 -0.2
v -0.3 1 -0.2
v -0.1 0.9 -0.2
v -0.1 1 -0.2
v -0.3 0.8 -0.3
v -0.3 0.9 -0.3
v -0.1 0.8 -0.3
v -0.1 0.9 -0.3
v -0.5 0 -1
v -0.5 0.1 -1
v -0.5 0.8 -1
v -0.3 0 -1
v -0.3 0.1 -1
v -0.3 0.4 -1
v -0.3 0.7 -1
v -0.3 0.8 -1
v -0.1 0 -1
v -0.1 0.1 -1
v -0.1 0.4 -1
v -0.1 0.7 -1
v -0.1 0.8 -1
v 0.1 0 -1
v 0.1 0.1 -1
v 0.1 0.8 -1
v -0.3 0.7 -1.2
v -0.3 0.9 -1.2
v -0.1 0.7 -1.2
v -0.1 0.9 -1.2
v -0.3 0.6 -1.3
v -0.3 0.7 -1.3
v -0.1 0.6 -1.3
v -0.1 0.7 -1.3
v -0.5 0 0.2
v -0.3 0 0.2
v -0.1 0 0.2
v 0.1 0 0.2
v -0.5 0 -0.1
v -0.3 0 -0.1
v -0.1 0 -0.1
v 0.1 0 -0.1
v -0.5 0 -0.7
v -0.3 0 -0.7
v -0.1 0 -0.7
v 0.1 0 -0.7
v -0.5 0 -1
v -0.3 0 -1
v -0.1 0 -1
v 0.1 0 -1
v -0.3 0.4 0.2
v -0.1 0.4 0.2
v -0.5 0.4 -0.1
v -0.3 0.4 -0.1
v -0.1 0.4 -0.1
v 0.1 0.4 -0.1
v -0.5 0.4 -0.4
v 0.1 0.4 -0.4
v -0.5 0.4 -0.5
v 0.1 0.4 -0.5
v -0.5 0.4 -0.7
v -0.3 0.4 -0.7
v -0.1 0.4 -0.7
v 0.1 0.4 -0.7
v -0.3 0.4 -1
v -0.1 0.4 -1
v -0.3 0.6 -1.1
v -0.1 0.6 -1.1
v -0.3 0.6 -1.3
v -0.1 0.6 -1.3
v -0.4 0.7 0.3
v 0 0.7 0.3
v -0.4 0.7 0.2
v 0 0.7 0.2
v -0.3 0.7 -1
v -0.1 0.7 -1
v -0.3 0.7 -1.1
v -0.1 0.7 -1.1
v -0.4 0.9 0.9
v 0 0.9 0.9
v -0.4 0.9 0.3
v 0 0.9 0.3
v -0.5 1.2 0.2
v -0.4 1.2 0.2
v 0 1.2 0.2
v 0.1 1.2 0.2
v -0.4 1.2 0.1
v 0 1.2 0.1
v -0.5 1.2 0
v -0.4 1.2 0
v 0 1.2 0
v 0.1 1.2 0
v -0.3 0.7 -1.2
v -0.1 0.7 -1.2
v -0.3 0.7 -1.3
v -0.1 0.7 -1.3
v -0.5 0.8 0.2
v -0.4 0.8 0.2
v 0 0.8 0.2
v 0.1 0.8 0.2
v -0.4 0.8 0
v -0.3 0.8 0
v -0.1 0.8 0
v 0 0.8 0
v -0.5 0.8 -0.1
v -0.3 0.8 -0.1
v -0.1 0.8 -0.1
v 0.1 0.8 -0.1
v -0.5 0.8 -0.2
v -0.3 0.8 -0.2
v -0.1 0.8 -0.2
v 0.1 0.8 -0.2
v -0.3 0.8 -0.3
v -0.1 0.8 -0.3
v -0.5 0.8 -0.7
v 0.1 0.8 -0.7
v -0.5 0.8 -0.8
v 0.1 0.8 -0.8
v -0.5 0.8 -1
v -0.3 0.8 -1
v -0.1 0.8 -1
v 0.1 0.8 -1
v -0.4 0.9 0.1
v -0.3 0.9 0.1
v -0.1 0.9 0.1
v 0 0.9 0.1
v -0.4 0.9 0
v -0.3 0.9 0
v -0.1 0.9 0
v 0 0.9 0
v -0.3 0.9 -0.2
v -0.1 0.9 -0.2
v -0.3 0.9 -0.3
v -0.1 0.9 -0.3
v -0.3 0.9 -1
v -0.1 0.9 -1
v -0.3 0.9 -1.2
v -0.1 0.9 -1.2
v -0.3 1 -0.1
v -0.1 1 -0.1
v -0.3 1 -0.2
v -0.1 1 -0.2
v -0.4 1.2 0.9
v 0 1.2 0.9
v -0.4 1.2 0.8
v 0 1.2 0.8
v -0.4 1.2 0.5
v -0.3 1.2 0.5
v -0.1 1.2 0.5
v 0 1.2 0.5
v -0.5 1.4 0.2
v -0.4 1.4 0.2
v 0 1.4 0.2
v 0.1 1.4 0.2
v -0.4 1.4 0.1
v 0 1.4 0.1
v -0.5 1.4 0
v -0.4 1.4 0
v -0.3 1.4 0
v -0.1 1.4 0
v 0 1.4 0
v 0.1 1.4 0
v -0.3 1.4 -0.1
v -0.1 1.4 -0.1
v -0.3 1.5 0.1
v -0.1 1.5 0.1
v -0.3 1.5 0
v -0.1 1.5 0
v -0.4 1.6 0.5
v 0 1.6 0.5
v -0.4 1.6 0.1
v 0 1.6 0.1

# faces
f 5/5/1 2/5/1 1/5/1
f 6/5/1 2/5/1 5/5/1
f 7/5/1 4/5/1 3/5/1
f 8/5/1 4/5/1 7/5/1
f 9/2/1 6/2/1 5/2/1
f 12/2/1 8/2/1 7/2/1
f 13/2/1 9/2/1 5/2/1
f 13/2/1 10/2/1 9/2/1
f 14/4/1 11/4/1 10/4/1
f 14/2/1 10/2/1 13/2/1
f 15/2/1 12/2/1 11/2/1
f 15/4/1 11/4/1 14/4/1
f 16/2/1 8/2/1 12/2/1
f 16/2/1 12/2/1 15/2/1
f 17/4/1 14/4/1 13/4/1
f 17/4/1 15/4/1 14/4/1
f 17/4/1 16/4/1 15/4/1
f 18/4/1 16/4/1 17/4/1
f 19/2/1 13/2/1 5/2/1
f 20/4/1 17/4/1 13/4/1
f 20/2/1 13/2/1 19/2/1
f 21/1/1 18/1/1 17/1/1
f 21/4/1 17/4/1 20/4/1
f 22/4/1 16/4/1 18/4/1
f 22/1/1 18/1/1 21/1/1
f 23/2/1 8/2/1 16/2/1
f 23/4/1 16/4/1 22/4/1
f 24/2/1 8/2/1 23/2/1
f 27/2/1 26/2/1 25/2/1
f 28/2/1 26/2/1 27/2/1
f 31/2/1 30/2/1 29/2/1
f 34/2/1 31/2/1 29/2/1
f 34/2/1 32/2/1 31/2/1
f 35/2/1 32/2/1 34/2/1
f 36/2/1 32/2/1 35/2/1
f 37/2/1 34/2/1 33/2/1
f 37/2/1 35/2/1 34/2/1
f 38/2/1 35/2/1 37/2/1
f 39/5/1 38/5/1 37/5/1
f 40/2/1 35/2/1 38/2/1
f 40/5/1 38/5/1 39/5/1
f 41/2/1 35/2/1 40/2/1
f 42/2/1 35/2/1 41/2/1
f 43/2/1 35/2/1 42/2/1
f 44/2/1 35/2/1 43/2/1
f 45/5/1 42/5/1 41/5/1
f 46/2/1 43/2/1 42/2/1
f 46/5/1 42/5/1 45/5/1
f 47/3/1 46/3/1 45/3/1
f 48/2/1 43/2/1 46/2/1
f 48/3/1 46/3/1 47/3/1
f 49/2/1 43/2/1 48/2/1
f 51/2/1 48/2/1 47/2/1
f 51/2/1 50/2/1 49/2/1
f 51/2/1 49/2/1 48/2/1
f 52/2/1 50/2/1 51/2/1
f 53/4/1 52/4/1 51/4/1
f 54/4/1 52/4/1 53/4/1
f 58/4/1 56/4/1 55/4/1
f 59/4/1 56/4/1 58/4/1
f 60/4/1 56/4/1 59/4/1
f 65/4/1 58/4/1 57/4/1
f 65/4/1 59/4/1 58/4/1
f 67/4/1 64/4/1 63/4/1
f 67/4/1 63/4/1 62/4/1
f 67/4/1 62/4/1 61/4/1
f 68/4/1 64/4/1 67/4/1
f 69/4/1 64/4/1 68/4/1
f 70/4/1 59/4/1 65/4/1
f 71/4/1 59/4/1 70/4/1
f 72/4/1 67/4/1 66/4/1
f 72/4/1 68/4/1 67/4/1
f 73/4/1 68/4/1 72/4/1
f 74/4/1 72/4/1 66/4/1
f 75/4/1 72/4/1 74/4/1
f 76/4/1 74/4/1 66/4/1
f 77/4/1 74/4/1 76/4/1
f 82/5/1 79/5/1 78/5/1
f 83/5/1 79/5/1 82/5/1
f 84/5/1 81/5/1 80/5/1
f 85/5/1 81/5/1 84/5/1
f 86/2/1 83/2/1 82/2/1
f 87/2/1 83/2/1 86/2/1
f 88/2/1 85/2/1 84/2/1
f 89/2/1 85/2/1 88/2/1
f 92/2/1 91/2/1 90/2/1
f 93/2/1 91/2/1 92/2/1
f 94/2/2 95/2/2 96/2/2
f 96/2/2 95/2/2 97/2/2
f 98/5/2 99/5/2 102/5/2
f 102/5/2 99/5/2 103/5/2
f 100/5/2 101/5/2 104/5/2
f 104/5/2 101/5/2 105/5/2
f 102/2/2 103/2/2 106/2/2
f 106/2/2 103/2/2 107/2/2
f 104/2/2 105/2/2 108/2/2
f 108/2/2 105/2/2 109/2/2
f 110/4/2 111/4/2 113/4/2
f 113/4/2 111/4/2 114/4/2
f 114/4/2 111/4/2 115/4/2
f 112/4/2 113/4/2 120/4/2
f 113/4/2 114/4/2 120/4/2
f 118/4/2 119/4/2 122/4/2
f 117/4/2 118/4/2 122/4/2
f 116/4/2 117/4/2 122/4/2
f 122/4/2 119/4/2 123/4/2
f 123/4/2 119/4/2 124/4/2
f 120/4/2 114/4/2 125/4/2
f 125/4/2 114/4/2 126/4/2
f 121/4/2 122/4/2 127/4/2
f 122/4/2 123/4/2 127/4/2
f 127/4/2 123/4/2 128/4/2
f 121/4/2 127/4/2 129/4/2
f 129/4/2 127/4/2 130/4/2
f 121/4/2 129/4/2 131/4/2
f 131/4/2 129/4/2 132/4/2
f 133/2/2 134/2/2 135/2/2
f 133/2/2 135/2/2 138/2/2
f 135/2/2 136/2/2 138/2/2
f 138/2/2 136/2/2 139/2/2
f 139/2/2 136/2/2 140/2/2
f 137/2/2 138/2/2 141/2/2
f 138/2/2 139/2/2 141/2/2
f 141/2/2 139/2/2 142/2/2
f 141/5/2 142/5/2 143/5/2
f 142/2/2 139/2/2 144/2/2
f 143/5/2 142/5/2 144/5/2
f 144/2/2 139/2/2 145/2/2
f 145/2/2 139/2/2 146/2/2
f 146/2/2 139/2/2 147/2/2
f 147/2/2 139/2/2 148/2/2
f 145/5/2 146/5/2 149/5/2
f 146/2/2 147/2/2 150/2/2
f 149/5/2 146/5/2 150/5/2
f 149/3/2 150/3/2 151/3/2
f 150/2/2 147/2/2 152/2/2
f 151/3/2 150/3/2 152/3/2
f 152/2/2 147/2/2 153/2/2
f 151/2/2 152/2/2 155/2/2
f 153/2/2 154/2/2 155/2/2
f 152/2/2 153/2/2 155/2/2
f 155/2/2 154/2/2 156/2/2
f 155/4/2 156/4/2 157/4/2
f 157/4/2 156/4/2 158/4/2
f 159/5/2 160/5/2 163/5/2
f 163/5/2 160/5/2 164/5/2
f 161/5/2 162/5/2 165/5/2
f 165/5/2 162/5/2 166/5/2
f 163/2/2 164/2/2 167/2/2
f 165/2/2 166/2/2 170/2/2
f 163/2/2 167/2/2 171/2/2
f 167/2/2 168/2/2 171/2/2
f 168/4/2 169/4/2 172/4/2
f 171/2/2 168/2/2 172/2/2
f 169/2/2 170/2/2 173/2/2
f 172/4/2 169/4/2 173/4/2
f 170/2/2 166/2/2 174/2/2
f 173/2/2 170/2/2 174/2/2
f 171/4/2 172/4/2 175/4/2
f 172/4/2 173/4/2 175/4/2
f 173/4/2 174/4/2 175/4/2
f 175/4/2 174/4/2 176/4/2
f 163/2/2 171/2/2 177/2/2
f 171/4/2 175/4/2 178/4/2
f 177/2/2 171/2/2 178/2/2
f 175/1/2 176/1/2 179/1/2
f 178/4/2 175/4/2 179/4/2
f 176/4/2 174/4/2 180/4/2
f 179/1/2 176/1/2 180/1/2
f 174/2/2 166/2/2 181/2/2
f 180/4/2 174/4/2 181/4/2
f 181/2/2 166/2/2 182/2/2
f 183/2/2 184/2/2 185/2/2
f 185/2/2 184/2/2 186/2/2
f 190/2/3 188/2/3 187/2/3
f 191/5/3 189/5/3 188/5/3
f 191/2/3 188/2/3 190/2/3
f 192/5/3 189/5/3 191/5/3
f 198/5/3 194/5/3 193/5/3
f 199/3/3 195/3/3 194/3/3
f 199/5/3 194/5/3 198/5/3
f 200/2/3 196/2/3 195/2/3
f 200/3/3 195/3/3 199/3/3
f 201/2/3 199/2/3 198/2/3
f 201/2/3 200/2/3 199/2/3
f 202/2/3 200/2/3 201/2/3
f 203/2/3 196/2/3 200/2/3
f 203/2/3 200/2/3 202/2/3
f 204/5/3 202/5/3 201/5/3
f 205/3/3 203/3/3 202/3/3
f 205/5/3 202/5/3 204/5/3
f 206/2/3 196/2/3 203/2/3
f 206/3/3 203/3/3 205/3/3
f 207/4/3 197/4/3 196/4/3
f 207/2/3 196/2/3 206/2/3
f 208/4/3 197/4/3 207/4/3
f 211/2/3 210/2/3 209/2/3
f 212/2/3 210/2/3 211/2/3
f 218/2/3 215/2/3 214/2/3
f 219/2/3 215/2/3 218/2/3
f 220/2/3 217/2/3 216/2/3
f 221/2/3 217/2/3 220/2/3
f 222/5/3 214/5/3 213/5/3
f 223/2/3 218/2/3 214/2/3
f 223/5/3 214/5/3 222/5/3
f 224/2/3 218/2/3 223/2/3
f 227/2/3 218/2/3 224/2/3
f 228/2/3 218/2/3 227/2/3
f 228/2/3 227/2/3 226/2/3
f 232/5/3 226/5/3 225/5/3
f 233/2/3 228/2/3 226/2/3
f 233/5/3 226/5/3 232/5/3
f 233/2/3 229/2/3 228/2/3
f 234/2/3 229/2/3 233/2/3
f 235/2/3 231/2/3 230/2/3
f 236/2/3 231/2/3 235/2/3
f 240/5/3 238/5/3 237/5/3
f 241/2/3 239/2/3 238/2/3
f 241/5/3 238/5/3 240/5/3
f 242/2/3 239/2/3 241/2/3
f 246/5/3 244/5/3 243/5/3
f 247/2/3 245/2/3 244/2/3
f 247/5/3 244/5/3 246/5/3
f 248/2/3 245/2/3 247/2/3
f 251/4/3 250/4/3 249/4/3
f 252/4/3 250/4/3 251/4/3
f 255/4/3 254/4/3 253/4/3
f 256/4/3 254/4/3 255/4/3
f 257/2/4 258/2/4 262/2/4
f 258/2/4 259/2/4 262/2/4
f 259/2/4 260/2/4 262/2/4
f 260/4/4 261/4/4 263/4/4
f 262/2/4 260/2/4 263/2/4
f 263/4/4 261/4/4 265/4/4
f 264/2/4 265/2/4 266/2/4
f 266/2/4 265/2/4 267/2/4
f 267/2/4 265/2/4 268/2/4
f 265/4/4 261/4/4 269/4/4
f 268/2/4 265/2/4 269/2/4
f 269/4/4 261/4/4 270/4/4
f 271/2/4 272/2/4 275/2/4
f 275/2/4 272/2/4 276/2/4
f 273/2/4 274/2/4 277/2/4
f 277/2/4 274/2/4 278/2/4
f 279/4/4 280/4/4 283/4/4
f 283/4/4 280/4/4 284/4/4
f 281/2/4 282/2/4 285/2/4
f 285/2/4 282/2/4 286/2/4
f 287/2/4 288/2/4 289/2/4
f 289/2/4 288/2/4 290/2/4
f 291/5/4 292/5/4 294/5/4
f 292/2/4 293/2/4 295/2/4
f 294/5/4 292/5/4 295/5/4
f 295/2/4 293/2/4 296/2/4
f 297/4/4 298/4/4 302/4/4
f 302/4/4 298/4/4 303/4/4
f 299/5/4 300/5/4 304/5/4
f 300/2/4 301/2/4 305/2/4
f 304/5/4 300/5/4 305/5/4
f 305/2/4 301/2/4 306/2/4
f 307/4/4 308/4/4 309/4/4
f 309/4/4 308/4/4 310/4/4
f 311/4/4 312/4/4 313/4/4
f 313/4/4 312/4/4 314/4/4
f 315/5/4 316/5/4 318/5/4
f 316/2/4 317/2/4 319/2/4
f 318/5/4 316/5/4 319/5/4
f 319/2/4 317/2/4 320/2/4
f 320/2/4 317/2/4 321/2/4
f 321/2/4 317/2/4 322/2/4
f 320/2/4 321/2/4 325/2/4
f 325/2/4 321/2/4 326/2/4
f 323/5/4 324/5/4 328/5/4
f 326/2/4 327/2/4 329/2/4
f 328/5/4 324/5/4 329/5/4
f 324/2/4 325/2/4 329/2/4
f 325/2/4 326/2/4 329/2/4
f 329/2/4 327/2/4 330/2/4
f 331/4/4 332/4/4 333/4/4
f 333/4/4 332/4/4 334/4/4
f 335/4/4 336/4/4 337/4/4
f 337/4/4 336/4/4 338/4/4
f 343/5/5 340/5/5 339/5/5
f 344/5/5 340/5/5 343/5/5
f 345/5/5 342/5/5 341/5/5
f 346/5/5 342/5/5 345/5/5
f 351/5/5 348/5/5 347/5/5
f 352/5/5 348/5/5 351/5/5
f 353/5/5 350/5/5 349/5/5
f 354/5/5 350/5/5 353/5/5
f 358/2/5 356/2/5 355/2/5
f 359/2/5 356/2/5 358/2/5
f 361/2/5 358/2/5 357/2/5
f 361/2/5 360/2/5 359/2/5
f 361/2/5 359/2/5 358/2/5
f 362/2/5 360/2/5 361/2/5
f 363/4/5 362/4/5 361/4/5
f 364/4/5 362/4/5 363/4/5
f 365/2/5 364/2/5 363/2/5
f 366/2/5 364/2/5 365/2/5
f 367/2/5 364/2/5 366/2/5
f 368/2/5 364/2/5 367/2/5
f 369/2/5 367/2/5 366/2/5
f 370/2/5 367/2/5 369/2/5
f 373/4/5 372/4/5 371/4/5
f 374/4/5 372/4/5 373/4/5
f 377/2/5 376/2/5 375/2/5
f 378/2/5 376/2/5 377/2/5
f 381/4/5 380/4/5 379/4/5
f 382/4/5 380/4/5 381/4/5
f 385/2/5 384/2/5 383/2/5
f 386/2/5 384/2/5 385/2/5
f 391/2/5 388/2/5 387/2/5
f 392/2/5 390/2/5 389/2/5
f 393/2/5 391/2/5 387/2/5
f 394/2/5 391/2/5 393/2/5
f 395/2/5 390/2/5 392/2/5
f 396/2/5 390/2/5 395/2/5
f 397/4/6 398/4/6 399/4/6
f 399/4/6 398/4/6 400/4/6
f 401/2/6 402/2/6 405/2/6
f 403/2/6 404/2/6 408/2/6
f 405/2/6 406/2/6 409/2/6
f 401/2/6 405/2/6 409/2/6
f 409/2/6 406/2/6 410/2/6
f 407/2/6 408/2/6 411/2/6
f 408/2/6 404/2/6 412/2/6
f 411/2/6 408/2/6 412/2/6
f 409/4/6 410/4/6 413/4/6
f 413/4/6 410/4/6 414/4/6
f 411/4/6 412/4/6 415/4/6
f 415/4/6 412/4/6 416/4/6
f 413/1/6 414/1/6 417/1/6
f 415/1/6 416/1/6 418/1/6
f 413/1/6 417/1/6 419/1/6
f 417/1/6 418/1/6 419/1/6
f 418/1/6 416/1/6 420/1/6
f 419/1/6 418/1/6 420/1/6
f 419/4/6 420/4/6 421/4/6
f 421/4/6 420/4/6 422/4/6
f 421/2/6 422/2/6 423/2/6
f 423/2/6 422/2/6 424/2/6
f 424/2/6 422/2/6 425/2/6
f 425/2/6 422/2/6 426/2/6
f 427/2/6 428/2/6 431/2/6
f 431/2/6 428/2/6 432/2/6
f 429/2/6 430/2/6 433/2/6
f 433/2/6 430/2/6 434/2/6
f 435/4/6 436/4/6 437/4/6
f 437/4/6 436/4/6 438/4/6
f 439/4/6 440/4/6 441/4/6
f 441/4/6 440/4/6 442/4/6
f 443/4/6 444/4/6 445/4/6
f 445/4/6 444/4/6 446/4/6
f 447/5/6 448/5/6 449/5/6
f 449/5/6 448/5/6 450/5/6
f 449/2/6 450/2/6 451/2/6
f 451/2/6 450/2/6 452/2/6
f 452/2/6 450/2/6 453/2/6
f 453/2/6 450/2/6 454/2/6
f 455/2/6 456/2/6 459/2/6
f 457/2/6 458/2/6 460/2/6
f 455/2/6 459/2/6 461/2/6
f 461/2/6 459/2/6 462/2/6
f 460/2/6 458/2/6 465/2/6
f 465/2/6 458/2/6 466/2/6
f 463/4/6 464/4/6 467/4/6
f 467/4/6 464/4/6 468/4/6
f 469/4/6 470/4/6 471/4/6
f 471/4/6 470/4/6 472/4/6
f 473/4/6 474/4/6 475/4/6
f 475/4/6 474/4/6 476/4/6
