# MagicaVoxel @ Ephtracy

# group
o 

# material
mtllib horse.mtl
usemtl palette

# normals
vn -1 0 0
vn 1 0 0
vn 0 0 1
vn 0 0 -1
vn 0 -1 0
vn 0 1 0

# texcoords
vt 0.369141 0.5
vt 0.962891 0.5
vt 0.990234 0.5
vt 0.994141 0.5

# verts
v -0.5 0 0.2
v -0.5 0 -0.1
v -0.5 0 -0.7
v -0.5 0 -1
v -0.5 0.1 0.2
v -0.5 0.1 -0.1
v -0.5 0.1 -0.7
v -0.5 0.1 -1
v -0.5 0.4 -0.1
v -0.5 0.4 -0.7
v -0.5 0.8 0.2
v -0.5 0.8 -1
v -0.5 1.2 0.2
v -0.5 1.2 0
v -0.5 1.4 0.2
v -0.5 1.4 0
v -0.4 0.7 0.3
v -0.4 0.7 0.2
v -0.4 0.8 0.2
v -0.4 0.8 0
v -0.4 0.9 0.9
v -0.4 0.9 0.3
v -0.4 0.9 0.1
v -0.4 0.9 0
v -0.4 1.1 0.9
v -0.4 1.1 0.8
v -0.4 1.2 0.9
v -0.4 1.2 0.8
v -0.4 1.2 0.5
v -0.4 1.2 0.4
v -0.4 1.2 0.2
v -0.4 1.2 0.1
v -0.4 1.3 0.5
v -0.4 1.3 0.4
v -0.4 1.4 0.5
v -0.4 1.4 0.4
v -0.4 1.4 0.2
v -0.4 1.4 0.1
v -0.4 1.5 0.5
v -0.4 1.5 0.1
v -0.4 1.6 0.5
v -0.4 1.6 0.1
v -0.3 0.6 -1.1
v -0.3 0.6 -1.3
v -0.3 0.7 -1
v -0.3 0.7 -1.1
v -0.3 0.7 -1.2
v -0.3 0.7 -1.3
v -0.3 0.8 0
v -0.3 0.8 -0.3
v -0.3 0.8 -1
v -0.3 0.9 0.1
v -0.3 0.9 0
v -0.3 0.9 -0.2
v -0.3 0.9 -0.3
v -0.3 0.9 -1
v -0.3 0.9 -1.2
v -0.3 1 -0.1
v -0.3 1 -0.2
v -0.3 1.4 0
v -0.3 1.4 -0.1
v -0.3 1.5 0.1
v -0.3 1.5 0
v -0.1 0 0.2
v -0.1 0 -0.1
v -0.1 0 -0.7
v -0.1 0 -1
v -0.1 0.1 0.2
v -0.1 0.1 -0.1
v -0.1 0.1 -0.7
v -0.1 0.1 -1
v -0.1 0.4 0.2
v -0.1 0.4 -0.1
v -0.1 0.4 -0.7
v -0.1 0.4 -1
v 0 1.2 0.1
v 0 1.2 0
v 0 1.4 0.1
v 0 1.4 0
v -0.4 1.2 0.1
v -0.4 1.2 0
v -0.4 1.4 0.1
v -0.4 1.4 0
v -0.3 0 0.2
v -0.3 0 -0.1
v -0.3 0 -0.7
v -0.3 0 -1
v -0.3 0.1 0.2
v -0.3 0.1 -0.1
v -0.3 0.1 -0.7
v -0.3 0.1 -1
v -0.3 0.4 0.2
v -0.3 0.4 -0.1
v -0.3 0.4 -0.7
v -0.3 0.4 -1
v -0.1 0.6 -1.1
v -0.1 0.6 -1.3
v -0.1 0.7 -1
v -0.1 0.7 -1.1
v -0.1 0.7 -1.2
v -0.1 0.7 -1.3
v -0.1 0.8 0
v -0.1 0.8 -0.3
v -0.1 0.8 -1
v -0.1 0.9 0.1
v -0.1 0.9 0
v -0.1 0.9 -0.2
v -0.1 0.9 -0.3
v -0.1 0.9 -1
v -0.1 0.9 -1.2
v -0.1 1 -0.1
v -0.1 1 -0.2
v -0.1 1.4 0
v -0.1 1.4 -0.1
v -0.1 1.5 0.1
v -0.1 1.5 0
v 0 0.7 0.3
v 0 0.7 0.2
v 0 0.8 0.2
v 0 0.8 0
v 0 0.9 0.9
v 0 0.9 0.3
v 0 0.9 0.1
v 0 0.9 0
v 0 1.1 0.9
v 0 1.1 0.8
v 0 1.2 0.9
v 0 1.2 0.8
v 0 1.2 0.5
v 0 1.2 0.4
v 0 1.2 0.2
v 0 1.2 0.1
v 0 1.3 0.5
v 0 1.3 0.4
v 0 1.4 0.5
v 0 1.4 0.4
v 0 1.4 0.2
v 0 1.4 0.1
v 0 1.5 0.5
v 0 1.5 0.1
v 0 1.6 0.5
v 0 1.6 0.1
v 0.1 0 0.2
v 0.1 0 -0.1
v 0.1 0 -0.7
v 0.1 0 -1
v 0.1 0.1 0.2
v 0.1 0.1 -0.1
v 0.1 0.1 -0.7
v 0.1 0.1 -1
v 0.1 0.4 -0.1
v 0.1 0.4 -0.7
v 0.1 0.8 0.2
v 0.1 0.8 -1
v 0.1 1.2 0.2
v 0.1 1.2 0
v 0.1 1.4 0.2
v 0.1 1.4 0
v -0.4 0.9 0.9
v -0.4 1.1 0.9
v -0.4 1.2 0.9
v 0 0.9 0.9
v 0 1.1 0.9
v 0 1.2 0.9
v -0.4 1.2 0.5
v -0.4 1.3 0.5
v -0.4 1.4 0.5
v -0.4 1.5 0.5
v -0.4 1.6 0.5
v -0.3 1.2 0.5
v -0.3 1.3 0.5
v -0.3 1.4 0.5
v -0.1 1.2 0.5
v -0.1 1.3 0.5
v -0.1 1.4 0.5
v 0 1.2 0.5
v 0 1.3 0.5
v 0 1.4 0.5
v 0 1.5 0.5
v 0 1.6 0.5
v -0.4 0.7 0.3
v -0.4 0.9 0.3
v 0 0.7 0.3
v 0 0.9 0.3
v -0.5 0 0.2
v -0.5 0.1 0.2
v -0.5 0.8 0.2
v -0.5 1.2 0.2
v -0.5 1.4 0.2
v -0.4 0.7 0.2
v -0.4 0.8 0.2
v -0.4 1.2 0.2
v -0.4 1.4 0.2
v -0.3 0 0.2
v -0.3 0.1 0.2
v -0.3 0.4 0.2
v -0.1 0 0.2
v -0.1 0.1 0.2
v -0.1 0.4 0.2
v 0 0.7 0.2
v 0 0.8 0.2
v 0 1.2 0.2
v 0 1.4 0.2
v 0.1 0 0.2
v 0.1 0.1 0.2
v 0.1 0.8 0.2
v 0.1 1.2 0.2
v 0.1 1.4 0.2
v -0.5 0 -0.7
v -0.5 0.1 -0.7
v -0.5 0.4 -0.7
v -0.3 0 -0.7
v -0.3 0.1 -0.7
v -0.3 0.4 -0.7
v -0.1 0 -0.7
v -0.1 0.1 -0.7
v -0.1 0.4 -0.7
v 0.1 0 -0.7
v 0.1 0.1 -0.7
v 0.1 0.4 -0.7
v -0.3 0.8 -1
v -0.3 0.9 -1
v -0.1 0.8 -1
v -0.1 0.9 -1
v -0.3 0.6 -1.1
v -0.3 0.7 -1.1
v -0.1 0.6 -1.1
v -0.1 0.7 -1.1
v -0.4 0.9 0.1
v -0.4 1.2 0.1
v -0.4 1.4 0.1
v -0.4 1.5 0.1
v -0.4 1.6 0.1
v -0.3 0.9 0.1
v -0.3 1.5 0.1
v -0.1 0.9 0.1
v -0.1 1.5 0.1
v 0 0.9 0.1
v 0 1.2 0.1
v 0 1.4 0.1
v 0 1.5 0.1
v 0 1.6 0.1
v -0.5 1.2 0
v -0.5 1.4 0
v -0.4 0.8 0
v -0.4 0.9 0
v -0.4 1.2 0
v -0.4 1.4 0
v -0.3 0.8 0
v -0.3 0.9 0
v -0.3 1.4 0
v -0.3 1.5 0
v -0.1 0.8 0
v -0.1 0.9 0
v -0.1 1.4 0
v -0.1 1.5 0
v 0 0.8 0
v 0 0.9 0
v 0 1.2 0
v 0 1.4 0
v 0.1 1.2 0
v 0.1 1.4 0
v -0.5 0 -0.1
v -0.5 0.1 -0.1
v -0.5 0.4 -0.1
v -0.3 0 -0.1
v -0.3 0.1 -0.1
v -0.3 0.4 -0.1
v -0.3 1 -0.1
v -0.3 1.4 -0.1
v -0.1 0 -0.1
v -0.1 0.1 -0.1
v -0.1 0.4 -0.1
v -0.1 1 -0.1
v -0.1 1.4 -0.1
v 0.1 0 -0.1
v 0.1 0.1 -0.1
v 0.1 0.4 -0.1
v -0.3 0.9 -0.2
v -0.3 1 -0.2
v -0.1 0.9 -0.2
v -0.1 1 -0.2
v -0.3 0.8 -0.3
v -0.3 0.9 -0.3
v -0.1 0.8 -0.3
v -0.1 0.9 -0.3
v -0.5 0 -1
v -0.5 0.1 -1
v -0.5 0.8 -1
v -0.3 0 -1
v -0.3 0.1 -1
v -0.3 0.4 -1
v -0.3 0.7 -1
v -0.3 0.8 -1
v -0.1 0 -1
v -0.1 0.1 -1
v -0.1 0.4 -1
v -0.1 0.7 -1
v -0.1 0.8 -1
v 0.1 0 -1
v 0.1 0.1 -1
v 0.1 0.8 -1
v -0.3 0.7 -1.2
v -0.3 0.9 -1.2
v -0.1 0.7 -1.2
v -0.1 0.9 -1.2
v -0.3 0.6 -1.3
v -0.3 0.7 -1.3
v -0.1 0.6 -1.3
v -0.1 0.7 -1.3
v -0.5 0 0.2
v -0.3 0 0.2
v -0.1 0 0.2
v 0.1 0 0.2
v -0.5 0 -0.1
v -0.3 0 -0.1
v -0.1 0 -0.1
v 0.1 0 -0.1
v -0.5 0 -0.7
v -0.3 0 -0.7
v -0.1 0 -0.7
v 0.1 0 -0.7
v -0.5 0 -1
v -0.3 0 -1
v -0.1 0 -1
v 0.1 0 -1
v -0.3 0.4 0.2
v -0.1 0.4 0.2
v -0.5 0.4 -0.1
v -0.3 0.4 -0.1
v -0.1 0.4 -0.1
v 0.1 0.4 -0.1
v -0.5 0.4 -0.7
v -0.3 0.4 -0.7
v -0.1 0.4 -0.7
v 0.1 0.4 -0.7
v -0.3 0.4 -1
v -0.1 0.4 -1
v -0.3 0.6 -1.1
v -0.1 0.6 -1.1
v -0.3 0.6 -1.3
v -0.1 0.6 -1.3
v -0.4 0.7 0.3
v 0 0.7 0.3
v -0.4 0.7 0.2
v 0 0.7 0.2
v -0.3 0.7 -1
v -0.1 0.7 -1
v -0.3 0.7 -1.1
v -0.1 0.7 -1.1
v -0.4 0.9 0.9
v 0 0.9 0.9
v -0.4 0.9 0.3
v 0 0.9 0.3
v -0.5 1.2 0.2
v -0.4 1.2 0.2
v 0 1.2 0.2
v 0.1 1.2 0.2
v -0.4 1.2 0.1
v 0 1.2 0.1
v -0.5 1.2 0
v -0.4 1.2 0
v 0 1.2 0
v 0.1 1.2 0
v -0.3 0.7 -1.2
v -0.1 0.7 -1.2
v -0.3 0.7 -1.3
v -0.1 0.7 -1.3
v -0.5 0.8 0.2
v -0.4 0.8 0.2
v 0 0.8 0.2
v 0.1 0.8 0.2
v -0.4 0.8 0
v -0.3 0.8 0
v -0.1 0.8 0
v 0 0.8 0
v -0.3 0.8 -0.3
v -0.1 0.8 -0.3
v -0.5 0.8 -1
v -0.3 0.8 -1
v -0.1 0.8 -1
v 0.1 0.8 -1
v -0.4 0.9 0.1
v -0.3 0.9 0.1
v -0.1 0.9 0.1
v 0 0.9 0.1
v -0.4 0.9 0
v -0.3 0.9 0
v -0.1 0.9 0
v 0 0.9 0
v -0.3 0.9 -0.2
v -0.1 0.9 -0.2
v -0.3 0.9 -0.3
v -0.1 0.9 -0.3
v -0.3 0.9 -1
v -0.1 0.9 -1
v -0.3 0.9 -1.2
v -0.1 0.9 -1.2
v -0.3 1 -0.1
v -0.1 1 -0.1
v -0.3 1 -0.2
v -0.1 1 -0.2
v -0.4 1.2 0.9
v 0 1.2 0.9
v -0.4 1.2 0.8
v 0 1.2 0.8
v -0.4 1.2 0.5
v -0.3 1.2 0.5
v -0.1 1.2 0.5
v 0 1.2 0.5
v -0.5 1.4 0.2
v -0.4 1.4 0.2
v 0 1.4 0.2
v 0.1 1.4 0.2
v -0.4 1.4 0.1
v 0 1.4 0.1
v -0.5 1.4 0
v -0.4 1.4 0
v -0.3 1.4 0
v -0.1 1.4 0
v 0 1.4 0
v 0.1 1.4 0
v -0.3 1.4 -0.1
v -0.1 1.4 -0.1
v -0.3 1.5 0.1
v -0.1 1.5 0.1
v -0.3 1.5 0
v -0.1 1.5 0
v -0.4 1.6 0.5
v 0 1.6 0.5
v -0.4 1.6 0.1
v 0 1.6 0.1

# faces
f 5/4/1 2/4/1 1/4/1
f 6/4/1 2/4/1 5/4/1
f 7/4/1 4/4/1 3/4/1
f 8/4/1 4/4/1 7/4/1
f 9/1/1 6/1/1 5/1/1
f 10/1/1 8/1/1 7/1/1
f 11/1/1 9/1/1 5/1/1
f 11/1/1 10/1/1 9/1/1
f 12/1/1 8/1/1 10/1/1
f 12/1/1 10/1/1 11/1/1
f 15/1/1 14/1/1 13/1/1
f 16/1/1 14/1/1 15/1/1
f 19/1/1 18/1/1 17/1/1
f 22/1/1 19/1/1 17/1/1
f 22/1/1 20/1/1 19/1/1
f 23/1/1 20/1/1 22/1/1
f 24/1/1 20/1/1 23/1/1
f 25/1/1 22/1/1 21/1/1
f 25/1/1 23/1/1 22/1/1
f 26/1/1 23/1/1 25/1/1
f 27/4/1 26/4/1 25/4/1
f 28/1/1 23/1/1 26/1/1
f 28/4/1 26/4/1 27/4/1
f 29/1/1 23/1/1 28/1/1
f 30/1/1 23/1/1 29/1/1
f 31/1/1 23/1/1 30/1/1
f 32/1/1 23/1/1 31/1/1
f 33/4/1 30/4/1 29/4/1
f 34/1/1 31/1/1 30/1/1
f 34/4/1 30/4/1 33/4/1
f 35/2/1 34/2/1 33/2/1
f 36/1/1 31/1/1 34/1/1
f 36/2/1 34/2/1 35/2/1
f 37/1/1 31/1/1 36/1/1
f 39/1/1 36/1/1 35/1/1
f 39/1/1 38/1/1 37/1/1
f 39/1/1 37/1/1 36/1/1
f 40/1/1 38/1/1 39/1/1
f 41/3/1 40/3/1 39/3/1
f 42/3/1 40/3/1 41/3/1
f 46/3/1 44/3/1 43/3/1
f 47/3/1 44/3/1 46/3/1
f 48/3/1 44/3/1 47/3/1
f 51/3/1 46/3/1 45/3/1
f 51/3/1 47/3/1 46/3/1
f 53/3/1 50/3/1 49/3/1
f 54/3/1 50/3/1 53/3/1
f 55/3/1 50/3/1 54/3/1
f 56/3/1 47/3/1 51/3/1
f 57/3/1 47/3/1 56/3/1
f 58/3/1 53/3/1 52/3/1
f 58/3/1 54/3/1 53/3/1
f 59/3/1 54/3/1 58/3/1
f 60/3/1 58/3/1 52/3/1
f 61/3/1 58/3/1 60/3/1
f 62/3/1 60/3/1 52/3/1
f 63/3/1 60/3/1 62/3/1
f 68/4/1 65/4/1 64/4/1
f 69/4/1 65/4/1 68/4/1
f 70/4/1 67/4/1 66/4/1
f 71/4/1 67/4/1 70/4/1
f 72/1/1 69/1/1 68/1/1
f 73/1/1 69/1/1 72/1/1
f 74/1/1 71/1/1 70/1/1
f 75/1/1 71/1/1 74/1/1
f 78/1/1 77/1/1 76/1/1
f 79/1/1 77/1/1 78/1/1
f 80/1/2 81/1/2 82/1/2
f 82/1/2 81/1/2 83/1/2
f 84/4/2 85/4/2 88/4/2
f 88/4/2 85/4/2 89/4/2
f 86/4/2 87/4/2 90/4/2
f 90/4/2 87/4/2 91/4/2
f 88/1/2 89/1/2 92/1/2
f 92/1/2 89/1/2 93/1/2
f 90/1/2 91/1/2 94/1/2
f 94/1/2 91/1/2 95/1/2
f 96/3/2 97/3/2 99/3/2
f 99/3/2 97/3/2 100/3/2
f 100/3/2 97/3/2 101/3/2
f 98/3/2 99/3/2 104/3/2
f 99/3/2 100/3/2 104/3/2
f 102/3/2 103/3/2 106/3/2
f 106/3/2 103/3/2 107/3/2
f 107/3/2 103/3/2 108/3/2
f 104/3/2 100/3/2 109/3/2
f 109/3/2 100/3/2 110/3/2
f 105/3/2 106/3/2 111/3/2
f 106/3/2 107/3/2 111/3/2
f 111/3/2 107/3/2 112/3/2
f 105/3/2 111/3/2 113/3/2
f 113/3/2 111/3/2 114/3/2
f 105/3/2 113/3/2 115/3/2
f 115/3/2 113/3/2 116/3/2
f 117/1/2 118/1/2 119/1/2
f 117/1/2 119/1/2 122/1/2
f 119/1/2 120/1/2 122/1/2
f 122/1/2 120/1/2 123/1/2
f 123/1/2 120/1/2 124/1/2
f 121/1/2 122/1/2 125/1/2
f 122/1/2 123/1/2 125/1/2
f 125/1/2 123/1/2 126/1/2
f 125/4/2 126/4/2 127/4/2
f 126/1/2 123/1/2 128/1/2
f 127/4/2 126/4/2 128/4/2
f 128/1/2 123/1/2 129/1/2
f 129/1/2 123/1/2 130/1/2
f 130/1/2 123/1/2 131/1/2
f 131/1/2 123/1/2 132/1/2
f 129/4/2 130/4/2 133/4/2
f 130/1/2 131/1/2 134/1/2
f 133/4/2 130/4/2 134/4/2
f 133/2/2 134/2/2 135/2/2
f 134/1/2 131/1/2 136/1/2
f 135/2/2 134/2/2 136/2/2
f 136/1/2 131/1/2 137/1/2
f 135/1/2 136/1/2 139/1/2
f 137/1/2 138/1/2 139/1/2
f 136/1/2 137/1/2 139/1/2
f 139/1/2 138/1/2 140/1/2
f 139/3/2 140/3/2 141/3/2
f 141/3/2 140/3/2 142/3/2
f 143/4/2 144/4/2 147/4/2
f 147/4/2 144/4/2 148/4/2
f 145/4/2 146/4/2 149/4/2
f 149/4/2 146/4/2 150/4/2
f 147/1/2 148/1/2 151/1/2
f 149/1/2 150/1/2 152/1/2
f 147/1/2 151/1/2 153/1/2
f 151/1/2 152/1/2 153/1/2
f 152/1/2 150/1/2 154/1/2
f 153/1/2 152/1/2 154/1/2
f 155/1/2 156/1/2 157/1/2
f 157/1/2 156/1/2 158/1/2
f 162/1/3 160/1/3 159/1/3
f 163/4/3 161/4/3 160/4/3
f 163/1/3 160/1/3 162/1/3
f 164/4/3 161/4/3 163/4/3
f 170/4/3 166/4/3 165/4/3
f 171/2/3 167/2/3 166/2/3
f 171/4/3 166/4/3 170/4/3
f 172/1/3 168/1/3 167/1/3
f 172/2/3 167/2/3 171/2/3
f 173/1/3 171/1/3 170/1/3
f 173/1/3 172/1/3 171/1/3
f 174/1/3 172/1/3 173/1/3
f 175/1/3 168/1/3 172/1/3
f 175/1/3 172/1/3 174/1/3
f 176/4/3 174/4/3 173/4/3
f 177/2/3 175/2/3 174/2/3
f 177/4/3 174/4/3 176/4/3
f 178/1/3 168/1/3 175/1/3
f 178/2/3 175/2/3 177/2/3
f 179/3/3 169/3/3 168/3/3
f 179/1/3 168/1/3 178/1/3
f 180/3/3 169/3/3 179/3/3
f 183/1/3 182/1/3 181/1/3
f 184/1/3 182/1/3 183/1/3
f 190/1/3 187/1/3 186/1/3
f 191/1/3 187/1/3 190/1/3
f 192/1/3 189/1/3 188/1/3
f 193/1/3 189/1/3 192/1/3
f 194/4/3 186/4/3 185/4/3
f 195/1/3 190/1/3 186/1/3
f 195/4/3 186/4/3 194/4/3
f 196/1/3 190/1/3 195/1/3
f 199/1/3 190/1/3 196/1/3
f 200/1/3 190/1/3 199/1/3
f 200/1/3 199/1/3 198/1/3
f 204/4/3 198/4/3 197/4/3
f 205/1/3 200/1/3 198/1/3
f 205/4/3 198/4/3 204/4/3
f 205/1/3 201/1/3 200/1/3
f 206/1/3 201/1/3 205/1/3
f 207/1/3 203/1/3 202/1/3
f 208/1/3 203/1/3 207/1/3
f 212/4/3 210/4/3 209/4/3
f 213/1/3 211/1/3 210/1/3
f 213/4/3 210/4/3 212/4/3
f 214/1/3 211/1/3 213/1/3
f 218/4/3 216/4/3 215/4/3
f 219/1/3 217/1/3 216/1/3
f 219/4/3 216/4/3 218/4/3
f 220/1/3 217/1/3 219/1/3
f 223/3/3 222/3/3 221/3/3
f 224/3/3 222/3/3 223/3/3
f 227/3/3 226/3/3 225/3/3
f 228/3/3 226/3/3 227/3/3
f 229/1/4 230/1/4 234/1/4
f 230/1/4 231/1/4 234/1/4
f 231/1/4 232/1/4 234/1/4
f 232/3/4 233/3/4 235/3/4
f 234/1/4 232/1/4 235/1/4
f 235/3/4 233/3/4 237/3/4
f 236/1/4 237/1/4 238/1/4
f 238/1/4 237/1/4 239/1/4
f 239/1/4 237/1/4 240/1/4
f 237/3/4 233/3/4 241/3/4
f 240/1/4 237/1/4 241/1/4
f 241/3/4 233/3/4 242/3/4
f 243/1/4 244/1/4 247/1/4
f 247/1/4 244/1/4 248/1/4
f 245/1/4 246/1/4 249/1/4
f 249/1/4 246/1/4 250/1/4
f 251/3/4 252/3/4 255/3/4
f 255/3/4 252/3/4 256/3/4
f 253/1/4 254/1/4 257/1/4
f 257/1/4 254/1/4 258/1/4
f 259/1/4 260/1/4 261/1/4
f 261/1/4 260/1/4 262/1/4
f 263/4/4 264/4/4 266/4/4
f 264/1/4 265/1/4 267/1/4
f 266/4/4 264/4/4 267/4/4
f 267/1/4 265/1/4 268/1/4
f 269/3/4 270/3/4 274/3/4
f 274/3/4 270/3/4 275/3/4
f 271/4/4 272/4/4 276/4/4
f 272/1/4 273/1/4 277/1/4
f 276/4/4 272/4/4 277/4/4
f 277/1/4 273/1/4 278/1/4
f 279/3/4 280/3/4 281/3/4
f 281/3/4 280/3/4 282/3/4
f 283/3/4 284/3/4 285/3/4
f 285/3/4 284/3/4 286/3/4
f 287/4/4 288/4/4 290/4/4
f 288/1/4 289/1/4 291/1/4
f 290/4/4 288/4/4 291/4/4
f 291/1/4 289/1/4 292/1/4
f 292/1/4 289/1/4 293/1/4
f 293/1/4 289/1/4 294/1/4
f 292/1/4 293/1/4 297/1/4
f 297/1/4 293/1/4 298/1/4
f 295/4/4 296/4/4 300/4/4
f 298/1/4 299/1/4 301/1/4
f 300/4/4 296/4/4 301/4/4
f 296/1/4 297/1/4 301/1/4
f 297/1/4 298/1/4 301/1/4
f 301/1/4 299/1/4 302/1/4
f 303/3/4 304/3/4 305/3/4
f 305/3/4 304/3/4 306/3/4
f 307/3/4 308/3/4 309/3/4
f 309/3/4 308/3/4 310/3/4
f 315/4/5 312/4/5 311/4/5
f 316/4/5 312/4/5 315/4/5
f 317/4/5 314/4/5 313/4/5
f 318/4/5 314/4/5 317/4/5
f 323/4/5 320/4/5 319/4/5
f 324/4/5 320/4/5 323/4/5
f 325/4/5 322/4/5 321/4/5
f 326/4/5 322/4/5 325/4/5
f 330/1/5 328/1/5 327/1/5
f 331/1/5 328/1/5 330/1/5
f 333/1/5 330/1/5 329/1/5
f 333/1/5 332/1/5 331/1/5
f 333/1/5 331/1/5 330/1/5
f 334/1/5 332/1/5 333/1/5
f 335/1/5 332/1/5 334/1/5
f 336/1/5 332/1/5 335/1/5
f 337/1/5 335/1/5 334/1/5
f 338/1/5 335/1/5 337/1/5
f 341/3/5 340/3/5 339/3/5
f 342/3/5 340/3/5 341/3/5
f 345/1/5 344/1/5 343/1/5
f 346/1/5 344/1/5 345/1/5
f 349/3/5 348/3/5 347/3/5
f 350/3/5 348/3/5 349/3/5
f 353/1/5 352/1/5 351/1/5
f 354/1/5 352/1/5 353/1/5
f 359/1/5 356/1/5 355/1/5
f 360/1/5 358/1/5 357/1/5
f 361/1/5 359/1/5 355/1/5
f 362/1/5 359/1/5 361/1/5
f 363/1/5 358/1/5 360/1/5
f 364/1/5 358/1/5 363/1/5
f 365/3/6 366/3/6 367/3/6
f 367/3/6 366/3/6 368/3/6
f 369/1/6 370/1/6 373/1/6
f 371/1/6 372/1/6 376/1/6
f 373/1/6 374/1/6 377/1/6
f 375/1/6 376/1/6 378/1/6
f 373/1/6 377/1/6 379/1/6
f 377/1/6 378/1/6 379/1/6
f 369/1/6 373/1/6 379/1/6
f 379/1/6 378/1/6 380/1/6
f 378/1/6 376/1/6 381/1/6
f 380/1/6 378/1/6 381/1/6
f 376/1/6 372/1/6 382/1/6
f 381/1/6 376/1/6 382/1/6
f 383/1/6 384/1/6 387/1/6
f 387/1/6 384/1/6 388/1/6
f 385/1/6 386/1/6 389/1/6
f 389/1/6 386/1/6 390/1/6
f 391/3/6 392/3/6 393/3/6
f 393/3/6 392/3/6 394/3/6
f 395/3/6 396/3/6 397/3/6
f 397/3/6 396/3/6 398/3/6
f 399/3/6 400/3/6 401/3/6
f 401/3/6 400/3/6 402/3/6
f 403/4/6 404/4/6 405/4/6
f 405/4/6 404/4/6 406/4/6
f 405/1/6 406/1/6 407/1/6
f 407/1/6 406/1/6 408/1/6
f 408/1/6 406/1/6 409/1/6
f 409/1/6 406/1/6 410/1/6
f 411/1/6 412/1/6 415/1/6
f 413/1/6 414/1/6 416/1/6
f 411/1/6 415/1/6 417/1/6
f 417/1/6 415/1/6 418/1/6
f 416/1/6 414/1/6 421/1/6
f 421/1/6 414/1/6 422/1/6
f 419/3/6 420/3/6 423/3/6
f 423/3/6 420/3/6 424/3/6
f 425/3/6 426/3/6 427/3/6
f 427/3/6 426/3/6 428/3/6
f 429/3/6 430/3/6 431/3/6
f 431/3/6 430/3/6 432/3/6
