# MagicaVoxel @ Ephtracy

# group
o 

# material
mtllib western3.mtl
usemtl palette

# normals
vn -1 0 0
vn 1 0 0
vn 0 0 1
vn 0 0 -1
vn 0 -1 0
vn 0 1 0

# texcoords
vt 0.0332031 0.5
vt 0.0605469 0.5
vt 0.587891 0.5
vt 0.982422 0.5

# verts
v -0.5 0 0.4
v -0.5 0 -0.3
v -0.5 0.1 0.4
v -0.5 0.1 -0.3
v -0.5 0.2 0.3
v -0.5 0.2 0.2
v -0.5 0.2 0.1
v -0.5 0.2 0
v -0.5 0.2 -0.1
v -0.5 0.2 -0.2
v -0.5 0.4 -0.1
v -0.5 0.4 -0.2
v -0.5 0.5 0.3
v -0.5 0.5 0.2
v -0.5 0.5 -0.1
v -0.5 0.5 -0.2
v -0.5 0.6 0.3
v -0.5 0.6 0.2
v -0.5 0.8 -0.1
v -0.5 0.8 -0.2
v -0.5 0.9 0.3
v -0.5 0.9 0.2
v -0.5 0.9 0.1
v -0.5 0.9 0
v -0.5 1 0.4
v -0.5 1 -0.3
v -0.5 1.1 0.4
v -0.5 1.1 -0.3
v -0.4 0 0.5
v -0.4 0 0.4
v -0.4 0 -0.3
v -0.4 0 -0.4
v -0.4 0.1 0.5
v -0.4 0.1 0.4
v -0.4 0.1 -0.3
v -0.4 0.1 -0.4
v -0.4 1 0.5
v -0.4 1 0.4
v -0.4 1 -0.3
v -0.4 1 -0.4
v -0.4 1.1 0.5
v -0.4 1.1 0.4
v -0.4 1.1 -0.3
v -0.4 1.1 -0.4
v 0.3 0 0.4
v 0.3 0 -0.3
v 0.3 0.1 0.4
v 0.3 0.1 -0.3
v 0.3 1 0.4
v 0.3 1 -0.3
v 0.3 1.1 0.4
v 0.3 1.1 -0.3
v -0.4 0 0.4
v -0.4 0 -0.3
v -0.4 0.1 0.4
v -0.4 0.1 -0.3
v -0.4 1 0.4
v -0.4 1 -0.3
v -0.4 1.1 0.4
v -0.4 1.1 -0.3
v 0.3 0 0.5
v 0.3 0 0.4
v 0.3 0 -0.3
v 0.3 0 -0.4
v 0.3 0.1 0.5
v 0.3 0.1 0.4
v 0.3 0.1 -0.3
v 0.3 0.1 -0.4
v 0.3 1 0.5
v 0.3 1 0.4
v 0.3 1 -0.3
v 0.3 1 -0.4
v 0.3 1.1 0.5
v 0.3 1.1 0.4
v 0.3 1.1 -0.3
v 0.3 1.1 -0.4
v 0.4 0 0.4
v 0.4 0 -0.3
v 0.4 0.1 0.4
v 0.4 0.1 -0.3
v 0.4 0.2 0.3
v 0.4 0.2 0.2
v 0.4 0.2 -0.1
v 0.4 0.2 -0.2
v 0.4 0.3 0.1
v 0.4 0.3 0
v 0.4 0.3 -0.1
v 0.4 0.3 -0.2
v 0.4 0.4 0.3
v 0.4 0.4 0.2
v 0.4 0.4 -0.1
v 0.4 0.4 -0.2
v 0.4 0.5 0.3
v 0.4 0.5 0.2
v 0.4 0.7 0.1
v 0.4 0.7 0
v 0.4 0.9 0.3
v 0.4 0.9 0.2
v 0.4 0.9 -0.1
v 0.4 0.9 -0.2
v 0.4 1 0.4
v 0.4 1 -0.3
v 0.4 1.1 0.4
v 0.4 1.1 -0.3
v -0.4 0 0.5
v -0.4 0.1 0.5
v -0.4 1 0.5
v -0.4 1.1 0.5
v -0.3 0.3 0.5
v -0.3 0.9 0.5
v -0.2 0.3 0.5
v -0.2 0.9 0.5
v -0.1 0.2 0.5
v -0.1 0.7 0.5
v 0 0.2 0.5
v 0 0.7 0.5
v 0.1 0.2 0.5
v 0.1 0.4 0.5
v 0.1 0.5 0.5
v 0.1 0.8 0.5
v 0.2 0.2 0.5
v 0.2 0.4 0.5
v 0.2 0.5 0.5
v 0.2 0.8 0.5
v 0.3 0 0.5
v 0.3 0.1 0.5
v 0.3 1 0.5
v 0.3 1.1 0.5
v -0.5 0 0.4
v -0.5 0.1 0.4
v -0.5 1 0.4
v -0.5 1.1 0.4
v -0.4 0 0.4
v -0.4 0.1 0.4
v -0.4 1 0.4
v -0.4 1.1 0.4
v 0.3 0 0.4
v 0.3 0.1 0.4
v 0.3 1 0.4
v 0.3 1.1 0.4
v 0.4 0 0.4
v 0.4 0.1 0.4
v 0.4 1 0.4
v 0.4 1.1 0.4
v -0.4 0 -0.3
v -0.4 0.1 -0.3
v -0.4 1 -0.3
v -0.4 1.1 -0.3
v 0.3 0 -0.3
v 0.3 0.1 -0.3
v 0.3 1 -0.3
v 0.3 1.1 -0.3
v -0.4 0 0.4
v -0.4 0.1 0.4
v -0.4 1 0.4
v -0.4 1.1 0.4
v 0.3 0 0.4
v 0.3 0.1 0.4
v 0.3 1 0.4
v 0.3 1.1 0.4
v -0.5 0 -0.3
v -0.5 0.1 -0.3
v -0.5 1 -0.3
v -0.5 1.1 -0.3
v -0.4 0 -0.3
v -0.4 0.1 -0.3
v -0.4 1 -0.3
v -0.4 1.1 -0.3
v 0.3 0 -0.3
v 0.3 0.1 -0.3
v 0.3 1 -0.3
v 0.3 1.1 -0.3
v 0.4 0 -0.3
v 0.4 0.1 -0.3
v 0.4 1 -0.3
v 0.4 1.1 -0.3
v -0.4 0 -0.4
v -0.4 0.1 -0.4
v -0.4 1 -0.4
v -0.4 1.1 -0.4
v -0.3 0.3 -0.4
v -0.3 0.7 -0.4
v -0.3 0.8 -0.4
v -0.3 0.9 -0.4
v -0.2 0.3 -0.4
v -0.2 0.7 -0.4
v -0.2 0.8 -0.4
v -0.2 0.9 -0.4
v -0.1 0.2 -0.4
v -0.1 0.5 -0.4
v -0.1 0.6 -0.4
v -0.1 0.9 -0.4
v 0 0.2 -0.4
v 0 0.5 -0.4
v 0 0.6 -0.4
v 0 0.9 -0.4
v 0.1 0.2 -0.4
v 0.1 0.9 -0.4
v 0.2 0.2 -0.4
v 0.2 0.9 -0.4
v 0.3 0 -0.4
v 0.3 0.1 -0.4
v 0.3 1 -0.4
v 0.3 1.1 -0.4
v -0.4 0 0.5
v 0.3 0 0.5
v -0.5 0 0.4
v -0.4 0 0.4
v 0.3 0 0.4
v 0.4 0 0.4
v -0.5 0 -0.3
v -0.4 0 -0.3
v 0.3 0 -0.3
v 0.4 0 -0.3
v -0.4 0 -0.4
v 0.3 0 -0.4
v -0.4 0.1 0.4
v 0.3 0.1 0.4
v -0.4 0.1 -0.3
v 0.3 0.1 -0.3
v -0.4 1 0.4
v 0.3 1 0.4
v -0.4 1 -0.3
v 0.3 1 -0.3
v -0.4 1.1 0.5
v 0.3 1.1 0.5
v -0.5 1.1 0.4
v -0.4 1.1 0.4
v 0.3 1.1 0.4
v 0.4 1.1 0.4
v -0.5 1.1 -0.3
v -0.4 1.1 -0.3
v 0.3 1.1 -0.3
v 0.4 1.1 -0.3
v -0.4 1.1 -0.4
v 0.3 1.1 -0.4

# faces
f 3/4/1 2/4/1 1/4/1
f 4/4/1 2/4/1 3/4/1
f 5/2/1 4/2/1 3/2/1
f 6/2/1 4/2/1 5/2/1
f 7/2/1 4/2/1 6/2/1
f 8/2/1 4/2/1 7/2/1
f 9/2/1 4/2/1 8/2/1
f 10/2/1 4/2/1 9/2/1
f 11/2/1 9/2/1 8/2/1
f 11/1/1 10/1/1 9/1/1
f 12/2/1 4/2/1 10/2/1
f 12/1/1 10/1/1 11/1/1
f 13/2/1 5/2/1 3/2/1
f 13/1/1 6/1/1 5/1/1
f 14/2/1 7/2/1 6/2/1
f 14/1/1 6/1/1 13/1/1
f 15/2/1 12/2/1 11/2/1
f 15/2/1 11/2/1 8/2/1
f 16/2/1 4/2/1 12/2/1
f 16/2/1 12/2/1 15/2/1
f 17/2/1 13/2/1 3/2/1
f 17/2/1 14/2/1 13/2/1
f 18/2/1 7/2/1 14/2/1
f 18/2/1 14/2/1 17/2/1
f 19/2/1 15/2/1 8/2/1
f 19/1/1 16/1/1 15/1/1
f 20/2/1 4/2/1 16/2/1
f 20/1/1 16/1/1 19/1/1
f 21/2/1 17/2/1 3/2/1
f 21/1/1 18/1/1 17/1/1
f 22/2/1 7/2/1 18/2/1
f 22/1/1 18/1/1 21/1/1
f 23/1/1 8/1/1 7/1/1
f 23/2/1 7/2/1 22/2/1
f 24/2/1 19/2/1 8/2/1
f 24/1/1 8/1/1 23/1/1
f 24/2/1 20/2/1 19/2/1
f 25/2/1 21/2/1 3/2/1
f 25/2/1 23/2/1 22/2/1
f 25/2/1 24/2/1 23/2/1
f 25/2/1 22/2/1 21/2/1
f 26/2/1 20/2/1 24/2/1
f 26/2/1 24/2/1 25/2/1
f 26/2/1 4/2/1 20/2/1
f 27/4/1 26/4/1 25/4/1
f 28/4/1 26/4/1 27/4/1
f 33/4/1 30/4/1 29/4/1
f 34/4/1 30/4/1 33/4/1
f 35/4/1 32/4/1 31/4/1
f 36/4/1 32/4/1 35/4/1
f 37/2/1 34/2/1 33/2/1
f 38/2/1 34/2/1 37/2/1
f 39/2/1 36/2/1 35/2/1
f 40/2/1 36/2/1 39/2/1
f 41/4/1 38/4/1 37/4/1
f 42/4/1 38/4/1 41/4/1
f 43/4/1 40/4/1 39/4/1
f 44/4/1 40/4/1 43/4/1
f 47/4/1 46/4/1 45/4/1
f 48/4/1 46/4/1 47/4/1
f 51/4/1 50/4/1 49/4/1
f 52/4/1 50/4/1 51/4/1
f 53/4/2 54/4/2 55/4/2
f 55/4/2 54/4/2 56/4/2
f 57/4/2 58/4/2 59/4/2
f 59/4/2 58/4/2 60/4/2
f 61/4/2 62/4/2 65/4/2
f 65/4/2 62/4/2 66/4/2
f 63/4/2 64/4/2 67/4/2
f 67/4/2 64/4/2 68/4/2
f 65/2/2 66/2/2 69/2/2
f 69/2/2 66/2/2 70/2/2
f 67/2/2 68/2/2 71/2/2
f 71/2/2 68/2/2 72/2/2
f 69/4/2 70/4/2 73/4/2
f 73/4/2 70/4/2 74/4/2
f 71/4/2 72/4/2 75/4/2
f 75/4/2 72/4/2 76/4/2
f 77/4/2 78/4/2 79/4/2
f 79/4/2 78/4/2 80/4/2
f 79/2/2 80/2/2 81/2/2
f 81/2/2 80/2/2 82/2/2
f 82/2/2 80/2/2 83/2/2
f 83/2/2 80/2/2 84/2/2
f 82/2/2 83/2/2 85/2/2
f 85/2/2 83/2/2 86/2/2
f 83/1/2 84/1/2 87/1/2
f 86/2/2 83/2/2 87/2/2
f 84/2/2 80/2/2 88/2/2
f 87/1/2 84/1/2 88/1/2
f 79/2/2 81/2/2 89/2/2
f 81/1/2 82/1/2 89/1/2
f 82/2/2 85/2/2 90/2/2
f 89/1/2 82/1/2 90/1/2
f 87/2/2 88/2/2 91/2/2
f 86/2/2 87/2/2 91/2/2
f 88/2/2 80/2/2 92/2/2
f 91/2/2 88/2/2 92/2/2
f 89/2/2 90/2/2 93/2/2
f 79/2/2 89/2/2 93/2/2
f 90/2/2 85/2/2 94/2/2
f 93/2/2 90/2/2 94/2/2
f 85/1/2 86/1/2 95/1/2
f 94/2/2 85/2/2 95/2/2
f 86/2/2 91/2/2 96/2/2
f 95/1/2 86/1/2 96/1/2
f 79/2/2 93/2/2 97/2/2
f 93/1/2 94/1/2 97/1/2
f 94/2/2 95/2/2 98/2/2
f 97/1/2 94/1/2 98/1/2
f 95/2/2 96/2/2 98/2/2
f 96/2/2 91/2/2 99/2/2
f 98/2/2 96/2/2 99/2/2
f 91/1/2 92/1/2 99/1/2
f 92/2/2 80/2/2 100/2/2
f 99/1/2 92/1/2 100/1/2
f 79/2/2 97/2/2 101/2/2
f 97/2/2 98/2/2 101/2/2
f 99/2/2 100/2/2 101/2/2
f 98/2/2 99/2/2 101/2/2
f 100/2/2 80/2/2 102/2/2
f 101/2/2 100/2/2 102/2/2
f 101/4/2 102/4/2 103/4/2
f 103/4/2 102/4/2 104/4/2
f 109/2/3 107/2/3 106/2/3
f 110/2/3 107/2/3 109/2/3
f 111/2/3 109/2/3 106/2/3
f 111/1/3 110/1/3 109/1/3
f 112/2/3 107/2/3 110/2/3
f 112/1/3 110/1/3 111/1/3
f 113/2/3 111/2/3 106/2/3
f 113/2/3 112/2/3 111/2/3
f 114/2/3 112/2/3 113/2/3
f 115/2/3 113/2/3 106/2/3
f 115/1/3 114/1/3 113/1/3
f 116/2/3 112/2/3 114/2/3
f 116/1/3 114/1/3 115/1/3
f 117/2/3 115/2/3 106/2/3
f 117/2/3 116/2/3 115/2/3
f 118/2/3 116/2/3 117/2/3
f 119/2/3 116/2/3 118/2/3
f 120/2/3 112/2/3 116/2/3
f 120/2/3 116/2/3 119/2/3
f 121/2/3 117/2/3 106/2/3
f 121/1/3 118/1/3 117/1/3
f 122/2/3 119/2/3 118/2/3
f 122/1/3 118/1/3 121/1/3
f 123/1/3 120/1/3 119/1/3
f 123/2/3 119/2/3 122/2/3
f 124/2/3 112/2/3 120/2/3
f 124/1/3 120/1/3 123/1/3
f 125/4/3 106/4/3 105/4/3
f 126/2/3 121/2/3 106/2/3
f 126/4/3 106/4/3 125/4/3
f 126/2/3 123/2/3 122/2/3
f 126/2/3 124/2/3 123/2/3
f 126/2/3 122/2/3 121/2/3
f 127/2/3 112/2/3 124/2/3
f 127/2/3 124/2/3 126/2/3
f 127/4/3 108/4/3 107/4/3
f 127/2/3 107/2/3 112/2/3
f 128/4/3 108/4/3 127/4/3
f 133/4/3 130/4/3 129/4/3
f 134/2/3 131/2/3 130/2/3
f 134/4/3 130/4/3 133/4/3
f 135/4/3 132/4/3 131/4/3
f 135/2/3 131/2/3 134/2/3
f 136/4/3 132/4/3 135/4/3
f 141/4/3 138/4/3 137/4/3
f 142/2/3 139/2/3 138/2/3
f 142/4/3 138/4/3 141/4/3
f 143/4/3 140/4/3 139/4/3
f 143/2/3 139/2/3 142/2/3
f 144/4/3 140/4/3 143/4/3
f 149/4/3 146/4/3 145/4/3
f 150/4/3 146/4/3 149/4/3
f 151/4/3 148/4/3 147/4/3
f 152/4/3 148/4/3 151/4/3
f 153/4/4 154/4/4 157/4/4
f 157/4/4 154/4/4 158/4/4
f 155/4/4 156/4/4 159/4/4
f 159/4/4 156/4/4 160/4/4
f 161/4/4 162/4/4 165/4/4
f 162/2/4 163/2/4 166/2/4
f 165/4/4 162/4/4 166/4/4
f 163/4/4 164/4/4 167/4/4
f 166/2/4 163/2/4 167/2/4
f 167/4/4 164/4/4 168/4/4
f 169/4/4 170/4/4 173/4/4
f 170/2/4 171/2/4 174/2/4
f 173/4/4 170/4/4 174/4/4
f 171/4/4 172/4/4 175/4/4
f 174/2/4 171/2/4 175/2/4
f 175/4/4 172/4/4 176/4/4
f 178/2/4 179/2/4 181/2/4
f 181/2/4 179/2/4 182/2/4
f 182/2/4 179/2/4 183/2/4
f 183/2/4 179/2/4 184/2/4
f 178/2/4 181/2/4 185/2/4
f 181/1/4 182/1/4 185/1/4
f 182/2/4 183/2/4 186/2/4
f 185/1/4 182/1/4 186/1/4
f 183/1/4 184/1/4 187/1/4
f 186/2/4 183/2/4 187/2/4
f 184/2/4 179/2/4 188/2/4
f 187/1/4 184/1/4 188/1/4
f 186/2/4 187/2/4 189/2/4
f 185/2/4 186/2/4 189/2/4
f 187/2/4 188/2/4 189/2/4
f 178/2/4 185/2/4 189/2/4
f 189/2/4 188/2/4 190/2/4
f 190/2/4 188/2/4 191/2/4
f 188/2/4 179/2/4 192/2/4
f 191/2/4 188/2/4 192/2/4
f 178/2/4 189/2/4 193/2/4
f 189/1/4 190/1/4 193/1/4
f 190/2/4 191/2/4 194/2/4
f 193/1/4 190/1/4 194/1/4
f 191/1/4 192/1/4 195/1/4
f 194/2/4 191/2/4 195/2/4
f 192/2/4 179/2/4 196/2/4
f 195/1/4 192/1/4 196/1/4
f 178/2/4 193/2/4 197/2/4
f 194/2/4 195/2/4 197/2/4
f 195/2/4 196/2/4 197/2/4
f 193/2/4 194/2/4 197/2/4
f 196/2/4 179/2/4 198/2/4
f 197/2/4 196/2/4 198/2/4
f 178/2/4 197/2/4 199/2/4
f 197/1/4 198/1/4 199/1/4
f 198/2/4 179/2/4 200/2/4
f 199/1/4 198/1/4 200/1/4
f 177/4/4 178/4/4 201/4/4
f 178/2/4 199/2/4 202/2/4
f 201/4/4 178/4/4 202/4/4
f 199/2/4 200/2/4 202/2/4
f 200/2/4 179/2/4 203/2/4
f 202/2/4 200/2/4 203/2/4
f 179/4/4 180/4/4 203/4/4
f 203/4/4 180/4/4 204/4/4
f 208/4/5 206/4/5 205/4/5
f 209/4/5 206/4/5 208/4/5
f 211/4/5 208/4/5 207/4/5
f 212/4/5 208/4/5 211/4/5
f 213/4/5 210/4/5 209/4/5
f 214/4/5 210/4/5 213/4/5
f 215/4/5 213/4/5 212/4/5
f 216/4/5 213/4/5 215/4/5
f 219/2/5 218/2/5 217/2/5
f 220/2/5 218/2/5 219/2/5
f 221/3/6 222/3/6 223/3/6
f 223/3/6 222/3/6 224/3/6
f 225/4/6 226/4/6 228/4/6
f 228/4/6 226/4/6 229/4/6
f 227/4/6 228/4/6 231/4/6
f 231/4/6 228/4/6 232/4/6
f 229/4/6 230/4/6 233/4/6
f 233/4/6 230/4/6 234/4/6
f 232/4/6 233/4/6 235/4/6
f 235/4/6 233/4/6 236/4/6
